{"title":"Trick Or Treaters 2016 Movies HDRip XviD AAC New +Sample ~ ☻rDX☻","uid":15876695,"size":740270250,"categoryP":"video","categoryS":"movies","magnet":"?xt=urn:btih:f753123ba07f61236e9e463cc106af2c2b642c48&amp;dn=Trick+Or+Treaters+2016+Movies+HDRip+XviD+AAC+New+%2BSample+%7E+%E2%98%BBrDX%E2%98%BB&amp;tr=udp%3A%2F%2Ftracker.leechers-paradise.org%3A6969&amp;tr=udp%3A%2F%2Fzer0day.ch%3A1337&amp;tr=udp%3A%2F%2Fopen.demonii.com%3A1337&amp;tr=udp%3A%2F%2Ftracker.coppersurfer.tk%3A6969&amp;tr=udp%3A%2F%2Fexodus.desync.com%3A6969","seeders":16,"leechers":5,"uploader":"basicssom","files":2,"time":1474522505,"description":"----------------------------------------------------------------\r\nTrick Or Treaters 2016 English Movies HDRip XviD AAC New Source with Sample ☻rDX☻\r\n\r\nSCREEN SHOTS &amp; POSTER:\r\n  \nhttp://postimage.co.nr/2016/9/data/index.htm  \nhttp://postimage.co.nr/2016/9/data/1.html  \nhttp://postimage.co.nr/2016/9/data/2.html  \nhttp://postimage.co.nr/2016/9/data/3.html  \nhttp://postimage.co.nr/2016/9/data/4.html  \nhttp://postimage.co.nr/2016/9/data/5.html  \nhttp://postimage.co.nr/2016/9/data/6.html  \nhttp://postimage.co.nr/2016/9/data/7.html  \nhttp://postimage.co.nr/2016/9/data/8.html  \nhttp://postimage.co.nr/2016/9/data/9.html  \nhttp://postimage.co.nr/2016/9/data/10.html\r\n\r\nFormat                                   : Matroska\r\nFormat version                           : Version 4 / Version 2\r\nFile size                                : 698 MiB\r\nDuration                                 : 1 h 14 min\r\nOverall bit rate mode                    : Constant\r\nOverall bit rate                         : 1 307 kb/s\r\nMovie name                               : Trick Or Treaters 2016 English Movies HDRip XviD AAC New Source ☻rDX☻\r\n\r\nVideo\r\nID                                       : 2\r\nFormat                                   : AVC\r\nFormat/Info                              : Advanced Video Codec\r\nFormat profile                           :   \r\nFormat settings, CABAC                   : Yes\r\nFormat settings, ReFrames                : 2 frames\r\nFormat settings, GOP                     : M=1, N=12\r\nCodec ID                                 : V_MPEG4/ISO/AVC\r\nDuration                                 : 1 h 14 min\r\nBit rate mode                            : Constant\r\nBit rate                                 : 924 kb/s\r\nWidth                                    : 720 pixels\r\nHeight                                   : 384 pixels\r\nDisplay aspect ratio                     : 1.85:1\r\nFrame rate mode                          : Constant\r\nFrame rate                               : 23.976 FPS\r\nColor space                              : YUV\r\nChroma subsampling                       : 4:2:0\r\nBit depth                                : 8 bits\r\nScan type                                : Progressive\r\nBits/(Pixel*Frame)                       : 0.139\r\nStream size                              : 479 MiB (69%)\r\nTitle                                    : ☻rDX☻\r\nDefault                                  : Yes\r\nForced                                   : No\r\n\r\nAudio\r\nID                                       : 1\r\nFormat                                   : AC-3\r\nFormat/Info                              : Audio Coding 3\r\nMode extension                           : CM (complete main)\r\nFormat settings, Endianness              : Big\r\nCodec ID                                 : A_AC3\r\nDuration                                 : 1 h 14 min\r\nBit rate mode                            : Constant\r\nBit rate                                 : 384 kb/s\r\nChannel(s)                               : 6 channels\r\nChannel positions                        : Front: L C R, Side: L R, LFE\r\nSampling rate                            : 48.0 kHz\r\nFrame rate                               : 31.250 FPS (1536 spf)\r\nCompression mode                         : Lossy\r\nStream size                              : 205 MiB (29%)\r\nTitle                                    : ☻rDX☻\r\nDefault                                  : Yes\r\nForced                                   : No\r\n\r\nIMDB \nhttp://www.imdb.com/title/tt2380283/","torrent":{"xt":"urn:btih:f753123ba07f61236e9e463cc106af2c2b642c48","amp;dn":"Trick+Or+Treaters+2016+Movies+HDRip+XviD+AAC+New+%2BSample+%7E+%E2%98%BBrDX%E2%98%BB","amp;tr":["udp%3A%2F%2Ftracker.leechers-paradise.org%3A6969","udp%3A%2F%2Fzer0day.ch%3A1337","udp%3A%2F%2Fopen.demonii.com%3A1337","udp%3A%2F%2Ftracker.coppersurfer.tk%3A6969","udp%3A%2F%2Fexodus.desync.com%3A6969"],"infoHash":"f753123ba07f61236e9e463cc106af2c2b642c48","infoHashBuffer":{"type":"Buffer","data":[247,83,18,59,160,127,97,35,110,158,70,60,193,6,175,44,43,100,44,72]},"announce":[],"urlList":[]}}